<svg t="1690009840976" class="icon" viewBox="0 0 1024 1024" version="1.1" xmlns="http://www.w3.org/2000/svg" p-id="9345" width="32" height="32"><path d="M978.88 330.24l-294.08-294.4A62.08 62.08 0 0 0 597.44 32a62.08 62.08 0 0 0 3.2 87.04l22.72 22.72-154.56 155.2a320 320 0 0 0-266.56 64 29.44 29.44 0 0 0-2.24 43.52L608 814.72a29.44 29.44 0 0 0 43.52-2.24 320 320 0 0 0 64-266.56l154.56-154.56 22.72 22.72a62.08 62.08 0 0 0 87.36 3.2 62.08 62.08 0 0 0-1.28-87.04zM69.44 896a23.36 23.36 0 0 0 0 32l14.72 14.72a23.36 23.36 0 0 0 32 0l264.64-222.08-89.28-87.68z" fill="#2c2c2c" p-id="9346"></path></svg>